<?xml version="1.0" encoding="utf-8"?>
<!-- Generator: Adobe Illustrator 22.0.1, SVG Export Plug-In . SVG Version: 6.00 Build 0)  -->
<svg version="1.1" id="Layer_1" xmlns="http://www.w3.org/2000/svg" xmlns:xlink="http://www.w3.org/1999/xlink" x="0px" y="0px"
	 viewBox="0 0 102 103" style="enable-background:new 0 0 102 103;" xml:space="preserve">
<style type="text/css">
	.st0{fill:#8CA1CD;}
</style>
<g>
	<path class="st0" d="M51.5,43.6c-3.9,0-7.1,3.2-7.1,7.1c0,3.9,3.2,7.1,7.1,7.1c3.9,0,7.1-3.2,7.1-7.1
		C58.6,46.8,55.4,43.6,51.5,43.6z"/>
	<path class="st0" d="M66.1,30.7H37c-3,0-5.4,2.4-5.4,5.4v29.1c0,3,2.4,5.4,5.4,5.4h29.1c3,0,5.4-2.4,5.4-5.4V36.1
		C71.5,33.1,69.1,30.7,66.1,30.7z M51.5,61.8c-6.1,0-11.1-5-11.1-11.1c0-6.1,5-11.1,11.1-11.1c6.1,0,11.1,5,11.1,11.1
		C62.7,56.8,57.7,61.8,51.5,61.8z M64.5,40.6c-1.8,0-3.2-1.5-3.2-3.2c0-1.8,1.5-3.2,3.2-3.2c1.8,0,3.2,1.5,3.2,3.2
		C67.7,39.2,66.3,40.6,64.5,40.6z"/>
	<path class="st0" d="M52,9.1c-23.7,0-43,19.3-43,43c0,23.8,19.3,43,43,43c23.8,0,43-19.3,43-43C95,28.3,75.7,9.1,52,9.1z
		 M75.5,65.2c0,5.2-4.2,9.5-9.5,9.5H37c-5.2,0-9.4-4.2-9.4-9.5V36.1c0-5.2,4.2-9.5,9.4-9.5h29.1c5.2,0,9.5,4.2,9.5,9.5V65.2z"/>
</g>
</svg>
