<?xml version="1.0" encoding="utf-8"?>
<!-- Generator: Adobe Illustrator 22.0.1, SVG Export Plug-In . SVG Version: 6.00 Build 0)  -->
<svg version="1.1" id="Layer_1" xmlns="http://www.w3.org/2000/svg" xmlns:xlink="http://www.w3.org/1999/xlink" x="0px" y="0px"
	 viewBox="0 0 102 103" style="enable-background:new 0 0 102 103;" xml:space="preserve">
<style type="text/css">
	.st0{fill:#8CA1CD;}
</style>
<path class="st0" d="M52.4,7.9C28.4,7.9,8.9,27.4,8.9,51.4C8.9,75.5,28.4,95,52.4,95C76.5,95,96,75.5,96,51.4
	C96,27.4,76.5,7.9,52.4,7.9z M44.5,73.3c-13.5-1.9-17.3-7.2-17.3-7.2c0.8,0.1,1.7,0.1,2.5,0.1c4.9,0,9.4-1.7,13-4.5
	c-4.6-0.1-8.4-3.1-9.8-7.3c0.6,0.1,1.3,0.2,2,0.2c1,0,1.9-0.1,2.8-0.4c-4.8-1-8.4-5.2-8.4-10.3c0,0,0-0.1,0-0.1
	c1.4,0.8,3,1.3,4.7,1.3c-2.8-1.9-4.7-5.1-4.7-8.7c0-1.9,0.5-3.7,1.4-5.3c5.2,6.3,12.9,10.5,21.6,10.9c-0.2-0.8-0.3-1.6-0.3-2.4
	c0-5.8,4.7-10.5,10.5-10.5c3,0,5.7,1.3,7.6,3.3c2.4-0.5,4.6-1.3,6.6-2.5c-0.8,2.4-2.4,4.5-4.6,5.8c2.1-0.3,3.6-0.6,5.4-1.4
	c-1.4,2.1-2.6,3.7-4.7,5.2C81.2,66.1,58,75.2,44.5,73.3z"/>
</svg>
